<?xml version="1.0" encoding="UTF-8"?>
<svg width="24px" height="24px" viewBox="0 0 24 24" version="1.1" xmlns="http://www.w3.org/2000/svg" xmlns:xlink="http://www.w3.org/1999/xlink">
    <!-- Generator: sketchtool 53.2 (72643) - https://sketchapp.com -->
    <title>B6AA3930-E38A-4E56-9863-E10975E18838</title>
    <desc>Created with sketchtool.</desc>
    <g id="pages" stroke="none" stroke-width="1" fill="none" fill-rule="evenodd">
        <g id="Homepage---PalmaSurvole" transform="translate(-1222.000000, -3831.000000)">
            <rect fill="#FFFFFF" x="0" y="0" width="1440" height="4185"></rect>
            <g id="Footer" transform="translate(-0.000000, 3809.000000)">
                <rect id="Background-" x="0" y="0" width="1440" height="70"></rect>
                <path d="M1236.02,34 L1234.72,34 L1234.72,38.69 L1232.78,38.69 L1232.78,34 L1231.81,34 L1231.81,32.38 L1232.78,32.38 L1232.78,31.41 C1232.78,30.1 1233.33,29.31 1234.88,29.31 L1236.18,29.31 L1236.18,30.93 L1235.37,30.93 C1234.76,30.93 1234.72,31.15 1234.72,31.57 L1234.72,32.38 L1236.19,32.38 L1236.02,34 L1236.02,34 Z M1234,22 C1227.37,22 1222,27.37 1222,34 C1222,40.63 1227.37,46 1234,46 C1240.63,46 1246,40.63 1246,34 C1246,27.37 1240.63,22 1234,22 L1234,22 Z" id="Facebook-Icon-" fill="#9ABC35"></path>
            </g>
        </g>
    </g>
</svg>