<?xml version="1.0" encoding="UTF-8"?>
<svg width="20px" height="24px" viewBox="0 0 20 24" version="1.1" xmlns="http://www.w3.org/2000/svg" xmlns:xlink="http://www.w3.org/1999/xlink">
    <!-- Generator: sketchtool 53.2 (72643) - https://sketchapp.com -->
    <title>F144C2B2-E60E-4DC7-80F5-5239157C4D30</title>
    <desc>Created with sketchtool.</desc>
    <g id="pages" stroke="none" stroke-width="1" fill="none" fill-rule="evenodd">
        <g id="11_Mon-compte-historique" transform="translate(-1087.000000, -242.000000)">
            <rect fill="#FFFFFF" x="0" y="0" width="1440" height="1516"></rect>
            <g id="moduli/scheda-6x2" transform="translate(731.000000, 152.000000)" fill="#FFFFFF" stroke="#E4E6E5">
                <path d="M0.5,3.99277253 L0.5,314.079517 C0.5,316.007717 2.06519235,317.572289 3.99515735,317.572289 L546.004843,317.572289 C547.933304,317.572289 549.5,316.007349 549.5,314.079517 L549.5,3.99277253 C549.5,2.06457246 547.934808,0.5 546.004843,0.5 L3.99515735,0.5 C2.06669624,0.5 0.5,2.06493999 0.5,3.99277253 Z" id="Base"></path>
            </g>
            <g id="Group" transform="translate(1087.000000, 242.000000)" fill="#0465AC" fill-rule="nonzero">
                <path d="M18.4615385,12 L16.9230769,12 C16.0738462,12 15.3846154,12.672 15.3846154,13.5 L15.3846154,22.5 C15.3846154,23.328 16.0738462,24 16.9230769,24 L18.4615385,24 C19.3107692,24 20,23.328 20,22.5 L20,13.5 C20,12.672 19.3107692,12 18.4615385,12 L18.4615385,12 Z" id="stats-path"></path>
                <path d="M3.07692308,6.75 L1.53846154,6.75 C0.689230769,6.75 -8.39328607e-13,7.422 -8.39328607e-13,8.25 L-8.39328607e-13,22.5 C-8.39328607e-13,23.328 0.689230769,24 1.53846154,24 L3.07692308,24 C3.92615385,24 4.61538462,23.328 4.61538462,22.5 L4.61538462,8.25 C4.61538462,7.422 3.92615385,6.75 3.07692308,6.75 L3.07692308,6.75 Z" id="stats-path"></path>
                <path d="M10.7692308,0 L9.23076923,0 C8.38153846,0 7.69230769,0.672 7.69230769,1.5 L7.69230769,22.5 C7.69230769,23.328 8.38153846,24 9.23076923,24 L10.7692308,24 C11.6184615,24 12.3076923,23.328 12.3076923,22.5 L12.3076923,1.5 C12.3076923,0.672 11.6184615,0 10.7692308,0 L10.7692308,0 Z" id="stats-path"></path>
            </g>
        </g>
    </g>
</svg>