<?xml version="1.0" encoding="UTF-8"?>
<svg width="130px" height="42px" viewBox="0 0 130 42" version="1.1" xmlns="http://www.w3.org/2000/svg" xmlns:xlink="http://www.w3.org/1999/xlink">
    <!-- Generator: sketchtool 53.2 (72643) - https://sketchapp.com -->
    <title>A905B782-1431-4A53-B8E4-5A216AE6A00B</title>
    <desc>Created with sketchtool.</desc>
    <defs>
        <polygon id="path-1" points="0 0 1456 0 1456 80 0 80"></polygon>
        <filter x="-0.0%" y="-0.6%" width="100.1%" height="102.5%" filterUnits="objectBoundingBox" id="filter-2">
            <feOffset dx="0" dy="1" in="SourceAlpha" result="shadowOffsetOuter1"></feOffset>
            <feColorMatrix values="0 0 0 0 0   0 0 0 0 0   0 0 0 0 0  0 0 0 0.1 0" type="matrix" in="shadowOffsetOuter1"></feColorMatrix>
        </filter>
    </defs>
    <g id="pages" stroke="none" stroke-width="1" fill="none" fill-rule="evenodd">
        <g id="Homepage---PalmaSurvole" transform="translate(-152.000000, -19.000000)">
            <rect fill="#FFFFFF" x="0" y="0" width="1440" height="4185"></rect>
            <g id="Nav/Global/Default" transform="translate(-0.000000, 0.000000)">
                <g id="Rectangle">
                    <use fill="black" fill-opacity="1" filter="url(#filter-2)" xlink:href="#path-1"></use>
                    <use fill="#FFFFFF" fill-rule="evenodd" xlink:href="#path-1"></use>
                </g>
                <g id="Group" transform="translate(152.000000, 19.000000)">
                    <text id="Palma" font-family="Roboto-Bold, Roboto" font-size="23" font-weight="bold" line-spacing="16" letter-spacing="1.916667" fill="#000000">
                        <tspan x="46" y="28">PALMA</tspan>
                    </text>
                    <g id="Group-4" fill="#9ABC35" fill-rule="nonzero">
                        <g id="computer-tablet">
                            <path d="M32.5605636,1.4018806 C31.6382364,0.467119403 30.5311758,0 29.236497,0 L4.7623697,0 C3.468,0 2.36001212,0.467119403 1.4382,1.4018806 C0.516593939,2.33685075 0.0557393939,3.46008955 0.0557393939,4.77274627 L0.0557393939,37.2269403 C0.0557393939,38.539806 0.516593939,39.662209 1.4382,40.5974925 C2.36001212,41.5324627 3.468,41.9990597 4.7623697,41.9990597 L29.2363939,41.9990597 C30.5310727,41.9990597 31.6382364,41.5324627 32.5605636,40.5974925 C33.4822727,39.662209 33.9434364,38.5391791 33.9434364,37.2269403 L33.9434364,4.77285075 C33.9434364,3.46008955 33.4812424,2.33653731 32.5605636,1.4018806 Z M18.3232182,39.5237761 C17.9509697,39.9013582 17.5094848,40.0901493 16.9993818,40.0901493 C16.4891758,40.0901493 16.048103,39.9013582 15.6754424,39.5237761 C15.3027818,39.1455672 15.1166061,38.6979851 15.1166061,38.1815522 C15.1166061,37.664597 15.3027818,37.2162836 15.6754424,36.8393284 C16.0485152,36.4611194 16.4895879,36.271597 16.9993818,36.271597 C17.5093818,36.271597 17.9508667,36.4610149 18.3232182,36.8393284 C18.6955697,37.2161791 18.8824667,37.6644925 18.8824667,38.1815522 C18.8824667,38.6979851 18.6955697,39.1452537 18.3232182,39.5237761 Z M30.1777818,33.4084925 C30.1777818,33.6673881 30.0840242,33.8904478 29.8985697,34.0799701 C29.7117758,34.2694925 29.491703,34.363209 29.2363939,34.363209 L4.7623697,34.363209 C4.50747273,34.363209 4.28688485,34.2687612 4.10060606,34.0799701 C3.91432727,33.8911791 3.82118788,33.6673881 3.82118788,33.4084925 L3.82118788,4.77285075 C3.82118788,4.51426866 3.91422424,4.29047761 4.10060606,4.10168657 C4.28698788,3.91268657 4.50747273,3.81834328 4.7623697,3.81834328 L29.2363939,3.81834328 C29.491703,3.81834328 29.7116727,3.91237313 29.8985697,4.10168657 C30.0847455,4.29047761 30.1777818,4.51426866 30.1777818,4.77285075 L30.1777818,33.4084925 Z" id="Shape"></path>
                        </g>
                        <g id="palm-tree" transform="translate(5.000000, 12.000000)">
                            <path d="M18.500709,5.22729278 C18.2586201,5.22729278 18.0164824,5.23596679 17.7723427,5.25282475 L18.7509521,4.71479099 C18.9177972,4.62290527 19.0215566,4.44731779 19.0215566,4.25639152 L19.0215566,3.85209436 L19.6288296,4.04654904 C19.7641318,4.0899191 19.9106156,4.07565843 20.0357128,4.00876563 L23.6856008,2.02810158 C23.9093793,1.90607735 24.0131386,1.63860415 23.9297405,1.39666292 C23.8483443,1.16339571 23.269538,3.4820656e-16 19.7915731,3.4820656e-16 C17.4824512,0 14.1723079,2.26244692 12.4999512,4.8572016 C10.8275944,2.26244692 7.5174511,0 5.20832926,0 C1.73036433,0 1.151558,1.16339571 1.07016184,1.39666292 C0.986763724,1.63865315 1.09052308,1.90612635 1.31430151,2.02810158 L4.96418959,4.00876563 C5.08933559,4.07565843 5.234794,4.0899191 5.37107277,4.04654904 L5.97839462,3.85204535 L5.97839462,4.25634251 C5.97839462,4.44726878 6.08215398,4.62285627 6.24899903,4.71474198 L7.22760849,5.25277575 C6.98346881,5.23591778 6.74137992,5.22724377 6.49924219,5.22724377 C2.73333893,5.22729278 0,7.20589858 0,9.93184157 C0,10.0854745 0.0671384096,10.2315115 0.18413014,10.3305031 C0.301121871,10.4300337 0.457761884,10.4718846 0.60629646,10.4473817 L4.17786454,9.85010004 C4.33963149,9.82304888 4.47898641,9.72195009 4.55423026,9.57650112 L4.8685845,8.9710845 L5.05881813,9.33759825 C5.16360288,9.53768859 5.38332858,9.64697134 5.60608162,9.61119717 L9.64888809,8.93496728 C7.96447084,13.861708 9.3199343,22.1899355 9.38209226,22.5635551 C9.42379131,22.8151994 9.64151507,23 9.89581095,23 L15.1041402,23 C15.2903211,23 15.4621955,22.9004694 15.5547732,22.7391426 C15.6483764,22.5773257 15.6483764,22.3782155 15.5557986,22.2163986 C15.5109746,22.1394596 11.2767626,14.6177682 13.326071,8.59623977 L19.3939184,9.61119717 C19.6126187,9.64589321 19.8374225,9.53768859 19.9411819,9.33759825 L20.1314155,8.9710845 L20.4457697,9.57650112 C20.5210624,9.72199909 20.6604173,9.82304888 20.8221355,9.85010004 L24.3937035,10.4473817 C24.4221702,10.4519882 24.4506857,10.4545365 24.4791524,10.4545365 C24.6012223,10.4545365 24.7212413,10.4111665 24.8158699,10.3305031 C24.9328616,10.2314625 25,10.0854745 25,9.93184157 C24.9999023,7.20589858 22.2665634,5.22729278 18.500709,5.22729278 Z" id="Path"></path>
                        </g>
                    </g>
                    <text id="Digital" font-family="Roboto-Medium, Roboto" font-size="10" font-weight="400" line-spacing="20" letter-spacing="9" fill="#B3B3B3">
                        <tspan x="45" y="32">Digita</tspan>
                        <tspan x="125.044922" y="32">l</tspan>
                    </text>
                </g>
            </g>
        </g>
    </g>
</svg>