<?xml version="1.0" encoding="UTF-8"?>
<svg width="20px" height="20px" viewBox="0 0 20 20" version="1.1" xmlns="http://www.w3.org/2000/svg" xmlns:xlink="http://www.w3.org/1999/xlink">
    <!-- Generator: sketchtool 53.2 (72643) - https://sketchapp.com -->
    <title>22FD01B3-E12B-4C6C-9E93-37C5D3818E12</title>
    <desc>Created with sketchtool.</desc>
    <defs>
        <polygon id="path-1" points="0 0 1456 0 1456 80 0 80"></polygon>
        <filter x="-0.0%" y="-0.6%" width="100.1%" height="102.5%" filterUnits="objectBoundingBox" id="filter-2">
            <feOffset dx="0" dy="1" in="SourceAlpha" result="shadowOffsetOuter1"></feOffset>
            <feColorMatrix values="0 0 0 0 0   0 0 0 0 0   0 0 0 0 0  0 0 0 0.1 0" type="matrix" in="shadowOffsetOuter1"></feColorMatrix>
        </filter>
    </defs>
    <g id="pages" stroke="none" stroke-width="1" fill="none" fill-rule="evenodd">
        <g id="Homepage---PalmaSurvole" transform="translate(-1051.000000, -30.000000)">
            <rect fill="#FFFFFF" x="0" y="0" width="1440" height="4185"></rect>
            <g id="Nav/Global/Default" transform="translate(-0.000000, 0.000000)">
                <g id="Rectangle">
                    <use fill="black" fill-opacity="1" filter="url(#filter-2)" xlink:href="#path-1"></use>
                    <use fill="#FFFFFF" fill-rule="evenodd" xlink:href="#path-1"></use>
                </g>
                <g id="Group-3" transform="translate(1051.000000, 30.000000)" fill="#33333A" fill-rule="nonzero">
                    <g id="002-magnifying-glass">
                        <path d="M19.8248337,18.9800443 L14.9645233,14.1197339 C16.2682927,12.6208426 17.0576497,10.6651885 17.0576497,8.52771619 C17.0576497,3.82261641 13.2305987,0 8.52993348,0 C3.8248337,0 0.0022172949,3.827051 0.0022172949,8.52771619 C0.0022172949,13.2283814 3.82926829,17.0554324 8.52993348,17.0554324 C10.6674058,17.0554324 12.6230599,16.2660754 14.1219512,14.962306 L18.9822616,19.8226164 C19.097561,19.9379157 19.2527716,20 19.4035477,20 C19.5543237,20 19.7095344,19.9423503 19.8248337,19.8226164 C20.0554324,19.5920177 20.0554324,19.210643 19.8248337,18.9800443 Z M1.19512195,8.52771619 C1.19512195,4.48337029 4.48558758,1.19733925 8.52549889,1.19733925 C12.5698448,1.19733925 15.8558758,4.48780488 15.8558758,8.52771619 C15.8558758,12.5676275 12.5698448,15.8625277 8.52549889,15.8625277 C4.48558758,15.8625277 1.19512195,12.5720621 1.19512195,8.52771619 Z" id="Shape"></path>
                    </g>
                </g>
            </g>
        </g>
    </g>
</svg>