<?xml version="1.0" encoding="UTF-8"?>
<svg width="20px" height="24px" viewBox="0 0 20 24" version="1.1" xmlns="http://www.w3.org/2000/svg" xmlns:xlink="http://www.w3.org/1999/xlink">
    <!-- Generator: sketchtool 53.2 (72643) - https://sketchapp.com -->
    <title>76B5DA3A-F2DC-4C9E-9BEC-C9F64DEDF3B2</title>
    <desc>Created with sketchtool.</desc>
    <g id="pages" stroke="none" stroke-width="1" fill="none" fill-rule="evenodd">
        <g id="11_Mon-compte-historique" transform="translate(-881.000000, -242.000000)">
            <rect fill="#FFFFFF" x="0" y="0" width="1440" height="1516"></rect>
            <g id="moduli/scheda-6x2" transform="translate(731.000000, 152.000000)" fill="#FFFFFF" stroke="#E4E6E5">
                <path d="M0.5,3.99277253 L0.5,314.079517 C0.5,316.007717 2.06519235,317.572289 3.99515735,317.572289 L546.004843,317.572289 C547.933304,317.572289 549.5,316.007349 549.5,314.079517 L549.5,3.99277253 C549.5,2.06457246 547.934808,0.5 546.004843,0.5 L3.99515735,0.5 C2.06669624,0.5 0.5,2.06493999 0.5,3.99277253 Z" id="Base"></path>
            </g>
            <path d="M899.461538,263.75 C899.461538,264.16475 899.117692,264.5 898.692308,264.5 C898.266923,264.5 897.923077,264.16475 897.923077,263.75 L897.923077,256.25 C897.923077,255.836 898.266923,255.5 898.692308,255.5 C899.117692,255.5 899.461538,255.836 899.461538,256.25 L899.461538,263.75 L899.461538,263.75 Z M899.461538,254 L897.923077,254 C897.073846,254 896.384615,254.672 896.384615,255.5 L896.384615,264.5 C896.384615,265.328 897.073846,266 897.923077,266 L899.461538,266 C900.310769,266 901,265.328 901,264.5 L901,255.5 C901,254.672 900.310769,254 899.461538,254 L899.461538,254 Z M884.076923,263.75 C884.076923,264.16475 883.733077,264.5 883.307692,264.5 C882.882308,264.5 882.538462,264.16475 882.538462,263.75 L882.538462,251 C882.538462,250.586 882.882308,250.25 883.307692,250.25 C883.733077,250.25 884.076923,250.586 884.076923,251 L884.076923,263.75 L884.076923,263.75 Z M884.076923,248.75 L882.538462,248.75 C881.689231,248.75 881,249.422 881,250.25 L881,264.5 C881,265.328 881.689231,266 882.538462,266 L884.076923,266 C884.926154,266 885.615385,265.328 885.615385,264.5 L885.615385,250.25 C885.615385,249.422 884.926154,248.75 884.076923,248.75 L884.076923,248.75 Z M891.769231,263.75 C891.769231,264.16475 891.425385,264.5 891,264.5 C890.574615,264.5 890.230769,264.16475 890.230769,263.75 L890.230769,244.25 C890.230769,243.83525 890.574615,243.5 891,243.5 C891.425385,243.5 891.769231,243.83525 891.769231,244.25 L891.769231,263.75 L891.769231,263.75 Z M891.769231,242 L890.230769,242 C889.381538,242 888.692308,242.672 888.692308,243.5 L888.692308,264.5 C888.692308,265.328 889.381538,266 890.230769,266 L891.769231,266 C892.618462,266 893.307692,265.328 893.307692,264.5 L893.307692,243.5 C893.307692,242.672 892.618462,242 891.769231,242 L891.769231,242 Z" id="stats" fill="#0465AC" fill-rule="nonzero"></path>
        </g>
    </g>
</svg>