<?xml version="1.0" encoding="UTF-8"?>
<svg width="24px" height="24px" viewBox="0 0 24 24" version="1.1" xmlns="http://www.w3.org/2000/svg" xmlns:xlink="http://www.w3.org/1999/xlink">
    <!-- Generator: sketchtool 53.2 (72643) - https://sketchapp.com -->
    <title>759D2E89-9CD7-4648-BDA3-2D1EEFDEEFA9</title>
    <desc>Created with sketchtool.</desc>
    <g id="pages" stroke="none" stroke-width="1" fill="none" fill-rule="evenodd">
        <g id="Homepage---PalmaSurvole" transform="translate(-1256.000000, -3831.000000)" fill="#9ABC35">
            <g id="Footer" transform="translate(-0.000000, 3809.000000)">
                <path d="M1272.48,31.9 L1272.49,32.17 C1272.49,34.96 1270.36,38.18 1266.48,38.18 C1265.29,38.18 1264.18,37.83 1263.24,37.23 C1263.41,37.25 1263.58,37.26 1263.75,37.26 C1264.74,37.26 1265.65,36.93 1266.37,36.36 C1265.44,36.34 1264.67,35.73 1264.4,34.89 C1264.53,34.92 1264.66,34.93 1264.79,34.93 C1264.99,34.93 1265.17,34.9 1265.35,34.86 C1264.38,34.66 1263.66,33.81 1263.66,32.79 L1263.66,32.76 C1263.94,32.92 1264.27,33.01 1264.61,33.02 C1264.05,32.64 1263.67,32 1263.67,31.27 C1263.67,30.88 1263.78,30.52 1263.96,30.2 C1265,31.48 1266.56,32.32 1268.31,32.41 C1268.28,32.26 1268.26,32.09 1268.26,31.93 C1268.26,30.76 1269.2,29.82 1270.37,29.82 C1270.98,29.82 1271.52,30.07 1271.91,30.48 C1272.39,30.39 1272.84,30.21 1273.25,29.97 C1273.09,30.47 1272.76,30.88 1272.32,31.14 C1272.75,31.09 1273.16,30.98 1273.53,30.81 C1273.25,31.23 1272.89,31.6 1272.48,31.9 L1272.48,31.9 Z M1268,22 C1261.37,22 1256,27.37 1256,34 C1256,40.63 1261.37,46 1268,46 C1274.63,46 1280,40.63 1280,34 C1280,27.37 1274.63,22 1268,22 L1268,22 Z" id="Twitter-Icon"></path>
            </g>
        </g>
    </g>
</svg>