<?xml version="1.0" encoding="UTF-8"?>
<svg width="22px" height="22px" viewBox="0 0 22 22" version="1.1" xmlns="http://www.w3.org/2000/svg" xmlns:xlink="http://www.w3.org/1999/xlink">
    <!-- Generator: sketchtool 53.2 (72643) - https://sketchapp.com -->
    <title>A34623A3-A3CE-42B5-95E6-34EF74FFC07D</title>
    <desc>Created with sketchtool.</desc>
    <defs>
        <polygon id="path-1" points="0 0 1456 0 1456 80 0 80"></polygon>
        <filter x="-0.0%" y="-0.6%" width="100.1%" height="102.5%" filterUnits="objectBoundingBox" id="filter-2">
            <feOffset dx="0" dy="1" in="SourceAlpha" result="shadowOffsetOuter1"></feOffset>
            <feColorMatrix values="0 0 0 0 0   0 0 0 0 0   0 0 0 0 0  0 0 0 0.1 0" type="matrix" in="shadowOffsetOuter1"></feColorMatrix>
        </filter>
    </defs>
    <g id="pages" stroke="none" stroke-width="1" fill="none" fill-rule="evenodd">
        <g id="Homepage---PalmaSurvole" transform="translate(-1112.000000, -30.000000)">
            <rect fill="#FFFFFF" x="0" y="0" width="1440" height="4185"></rect>
            <g id="Nav/Global/Default" transform="translate(-0.000000, 0.000000)">
                <g id="Rectangle">
                    <use fill="black" fill-opacity="1" filter="url(#filter-2)" xlink:href="#path-1"></use>
                    <use fill="#FFFFFF" fill-rule="evenodd" xlink:href="#path-1"></use>
                </g>
                <g id="wallet" transform="translate(1113.000000, 31.000000)" fill="#33333A" fill-rule="nonzero" stroke="#33333A" stroke-width="0.5">
                    <path d="M20,9.31682175 L19.0306924,9.31682175 L19.0306924,4.90271026 C19.0306924,3.8444678 18.1610485,2.98355212 17.0920773,2.98355212 L15.7792558,2.98355212 L14.4357872,0.592278933 C14.2310303,0.22683023 13.8413646,0 13.4187593,0 C13.2217848,0 13.0263789,0.0502872705 12.8538377,0.145068622 L7.69787189,2.9834924 L1.93861515,2.9834924 C0.869643908,2.9834924 0,3.84440808 0,4.90265053 L0,18.0808419 C0,19.1390843 0.869643908,20 1.93861515,20 L17.0920773,20 C18.1610485,20 19.0306924,19.1390843 19.0306924,18.0808419 L19.0306924,14.2106332 L20,14.2106332 L20,9.31682175 Z M17.0920773,3.75117954 C17.6891543,3.75117954 18.1769151,4.20024128 18.2424325,4.77484203 L16.7853642,4.77484203 L16.2107295,3.75117954 L17.0920773,3.75117954 Z M13.2310755,0.816003536 C13.4129074,0.715070653 13.6576022,0.785663947 13.7579898,0.964954192 L15.8982248,4.77448369 L6.03996803,4.77448369 L13.2310755,0.816003536 Z M18.2552222,18.0808419 C18.2552222,18.7157037 17.7333152,19.2323726 17.092017,19.2323726 L1.93861515,19.2323726 C1.29731686,19.2323726 0.775409861,18.7157037 0.775409861,18.0808419 L0.775409861,4.90271026 C0.775409861,4.2678484 1.29731686,3.75117954 1.93861515,3.75117954 L6.30360617,3.75117954 L4.44408247,4.77490175 L2.18095712,4.77490175 C1.96654752,4.77490175 1.79322203,4.946846 1.79322203,5.15874533 C1.79322203,5.37064466 1.96654752,5.5425889 2.18095712,5.5425889 L3.04945478,5.5425889 L17.2165362,5.5425889 L18.2552222,5.5425889 L18.2552222,9.31718009 L15.4198151,9.31718009 C14.1030723,9.31718009 13.0314465,10.3781101 13.0314465,11.6815777 L13.0314465,11.8466537 C13.0314465,13.150181 14.1031326,14.2110513 15.4198151,14.2110513 L18.2552222,14.2110513 L18.2552222,18.0808419 Z M19.2245298,13.4430058 L19.0306924,13.4430058 L15.4198151,13.4430058 C14.5303832,13.4430058 13.8068564,12.7268004 13.8068564,11.8462356 L13.8068564,11.6811596 C13.8068564,10.8006546 14.5303229,10.0843894 15.4198151,10.0843894 L19.0306924,10.0843894 L19.2245298,10.0843894 L19.2245298,13.4430058 Z M16.6073933,11.7952317 C16.6073933,12.2635244 16.2243036,12.6427095 15.7513235,12.6427095 C15.278283,12.6427095 14.8952536,12.2634647 14.8952536,11.7952317 C14.8952536,11.3269987 15.2783434,10.9477538 15.7513235,10.9477538 C16.2243639,10.9476941 16.6073933,11.3272973 16.6073933,11.7952317 Z" id="Shape"></path>
                </g>
                <rect id="Rectangle" stroke="#979797" opacity="0.171781994" x="1096.5" y="25.5" width="144" height="32" rx="16"></rect>
            </g>
        </g>
    </g>
</svg>